<svg width="779" height="145" viewBox="0 0 779 145" fill="none" xmlns="http://www.w3.org/2000/svg">
<path d="M632.238 51.8676L658.48 25.6753L643.633 10.856C629.131 -3.61867 605.651 -3.61867 591.149 10.856C576.647 25.3307 576.647 48.7658 591.149 63.2405L632.584 104.597C617.736 89.7774 617.736 66.3422 632.238 51.8676Z" fill="#2393D9"/>
<path d="M630.698 102.714L591.149 63.2405C578.796 50.9108 576.965 32.0794 585.657 17.8228C584.383 19.2849 583.194 20.8522 582.103 22.5221L545.25 78.9396C532.482 98.4841 537.977 124.678 557.521 137.445C577.066 150.212 603.259 144.718 616.027 125.173L630.698 102.714Z" fill="url(#paint0_linear)"/>
<path d="M684.867 51.8676L658.625 25.6753L673.472 10.856C687.974 -3.61867 711.454 -3.61867 725.956 10.856C740.458 25.3307 740.458 48.7658 725.956 63.2405L684.522 104.597C699.369 89.7774 699.369 66.3422 684.867 51.8676Z" fill="#2393D9"/>
<path d="M686.408 102.714L725.956 63.2405C738.309 50.9108 740.14 32.0794 731.448 17.8228C732.722 19.2849 733.911 20.8522 735.002 22.5221L771.856 78.9396C784.623 98.4841 779.129 124.678 759.584 137.445C740.04 150.212 713.846 144.718 701.079 125.173L686.408 102.714Z" fill="url(#paint1_linear)"/>
<path d="M684.722 51.8681L658.48 25.6758L632.239 51.8681C617.737 66.3427 617.737 89.7779 632.239 104.253C646.741 118.727 670.22 118.727 684.722 104.253C699.224 89.7779 699.224 66.3427 684.722 51.8681Z" fill="#01ABE9"/>
<path d="M150.837 89.7505C150.774 75.0792 147.092 63.186 139.789 54.071C131.424 43.5201 120.095 39.743 105.801 42.7397C100.808 43.8011 93.4733 49.0453 83.7983 58.4724H83.1429C74.7786 44.6127 62.4508 39.3685 46.1593 42.7397C42.5389 43.4889 39.1683 45.237 36.0473 47.984C35.3607 48.5459 34.1747 49.6696 32.4894 51.3553C31.241 52.6039 30.2423 53.4779 29.4932 53.9774V53.8837C29.4932 51.3241 28.5882 49.139 26.778 47.3284C24.9678 45.4555 22.7831 44.519 20.2239 44.519H9.36293C6.74131 44.519 4.52542 45.4555 2.71525 47.3284C0.905084 49.139 0 51.3241 0 53.8837V123.932C0 127.615 1.31081 130.799 3.93243 133.484C6.61647 136.106 9.79987 137.417 13.4826 137.417H15.5425C19.2876 137.417 22.471 136.106 25.0927 133.484C27.7767 130.799 29.1187 127.615 29.1187 123.932V82.8207C29.1187 78.388 30.6168 74.5173 33.6129 71.2084C36.6715 67.8371 40.3855 66.0891 44.7548 65.9642C49.3115 65.8393 53.2439 67.3689 56.5521 70.5529C59.7979 73.7369 61.4208 77.6076 61.4208 82.1651V123.932C61.4208 127.615 62.7629 130.799 65.4469 133.484C68.0685 136.106 71.2519 137.417 74.9971 137.417H77.7124C81.3951 137.417 84.5785 136.106 87.2625 133.484C89.8842 130.799 91.195 127.615 91.195 123.932V82.8207C91.195 78.388 92.6931 74.5173 95.6892 71.2084C98.7477 67.8371 102.462 66.0891 106.831 65.9642C111.45 65.8393 115.383 67.3689 118.628 70.5529C121.937 73.7369 123.591 77.6076 123.591 82.1651V123.932C123.591 127.615 124.902 130.799 127.523 133.484C130.145 136.106 133.328 137.417 137.073 137.417H137.354C141.099 137.417 144.283 136.106 146.904 133.484C149.526 130.799 150.837 127.615 150.837 123.932V89.7505Z" fill="url(#paint2_linear)"/>
<path d="M163.851 90.0315C163.914 104.64 167.597 116.502 174.9 125.617C183.201 136.168 194.531 139.977 208.887 137.042C211.634 136.48 218.905 132.735 230.703 125.805V125.898C230.703 128.458 231.639 130.643 233.512 132.454C235.322 134.264 237.506 135.169 240.066 135.169H250.833C253.455 135.169 255.671 134.264 257.481 132.454C259.353 130.581 260.29 128.364 260.29 125.805V56.6931C260.29 52.76 258.885 49.3887 256.076 46.5793C253.267 43.7699 249.866 42.3652 245.871 42.3652H245.496C241.501 42.3652 238.099 43.7699 235.291 46.5793C232.482 49.3887 231.077 52.76 231.077 56.6931V96.4931C231.015 96.618 230.984 96.6492 230.984 96.5868C230.921 97.4608 230.828 98.21 230.703 98.8343C229.954 103.08 226.677 106.982 220.872 110.54C214.193 114.598 207.795 115.129 201.678 112.132C195.81 109.26 192.876 102.549 192.876 91.9981V56.6931C192.876 52.76 191.472 49.3887 188.663 46.5793C185.854 43.7699 182.452 42.3652 178.458 42.3652H178.177C174.244 42.3652 170.874 43.7699 168.065 46.5793C165.256 49.3887 163.851 52.76 163.851 56.6931V90.0315Z" fill="url(#paint3_linear)"/>
<path d="M305.232 122.152C305.232 126.335 303.734 129.925 300.737 132.922C297.804 135.919 294.215 137.417 289.97 137.417H289.689C285.445 137.417 281.856 135.919 278.922 132.922C275.926 129.925 274.428 126.335 274.428 122.152V25.3214C274.428 21.0761 275.926 17.4551 278.922 14.4583C281.856 11.5241 285.445 10.0569 289.689 10.0569H289.97C294.215 10.0569 297.804 11.5241 300.737 14.4583C303.734 17.4551 305.232 21.0761 305.232 25.3214V122.152Z" fill="url(#paint4_linear)"/>
<path d="M368.151 113.256C362.283 110.259 359.349 103.517 359.349 93.0282V63.4357H367.963C370.585 63.4357 372.832 62.4993 374.705 60.6263C376.64 58.7534 377.607 56.4746 377.607 53.7901V53.6028C377.607 50.9807 376.64 48.7332 374.705 46.8602C372.832 44.9248 370.585 43.9572 367.963 43.9572H359.349V35.9972C359.349 32.8132 358.351 29.9101 356.353 27.288C354.418 24.7283 351.89 23.0427 348.769 22.231L348.395 22.1374C343.838 20.8888 339.687 21.7004 335.942 24.5722C332.197 27.4441 330.324 31.2524 330.324 35.9972V43.9572H326.392C323.708 43.9572 321.43 44.9248 319.557 46.8602C317.684 48.7332 316.748 50.9807 316.748 53.6028V53.7901C316.748 56.4746 317.684 58.7534 319.557 60.6263C321.43 62.4993 323.708 63.4357 326.392 63.4357H330.324V91.1552C330.387 104.453 332.447 115.004 336.504 122.808C341.56 132.547 349.487 137.417 360.286 137.417C365.03 137.417 368.681 133.983 371.24 127.116C372.301 124.181 372.614 121.497 372.177 119.062C371.74 116.315 370.398 114.38 368.151 113.256Z" fill="url(#paint5_linear)"/>
<path d="M435.751 113.256C429.884 110.259 426.95 103.517 426.95 93.0282V63.4357H435.564C438.185 63.4357 440.432 62.4993 442.305 60.6263C444.24 58.7534 445.208 56.4746 445.208 53.7901V53.6028C445.208 50.9807 444.24 48.7332 442.305 46.8602C440.432 44.9248 438.185 43.9572 435.564 43.9572H426.95V35.9972C426.95 32.8132 425.951 29.9101 423.954 27.288C422.019 24.7283 419.491 23.0427 416.37 22.231L415.995 22.1374C411.439 20.8888 407.288 21.7004 403.542 24.5722C399.797 27.4441 397.925 31.2524 397.925 35.9972V43.9572H393.992C391.308 43.9572 389.03 44.9248 387.157 46.8602C385.285 48.7332 384.348 50.9807 384.348 53.6028V53.7901C384.348 56.4746 385.285 58.7534 387.157 60.6263C389.03 62.4993 391.308 63.4357 393.992 63.4357H397.925V91.1552C397.987 104.453 400.047 115.004 404.104 122.808C409.16 132.547 417.088 137.417 427.886 137.417C432.63 137.417 436.282 133.983 438.841 127.116C439.902 124.181 440.214 121.497 439.777 119.062C439.34 116.315 437.998 114.38 435.751 113.256Z" fill="url(#paint6_linear)"/>
<path d="M469.458 137.417C465.213 137.417 461.593 135.919 458.597 132.922C455.663 129.988 454.196 126.398 454.196 122.152V60.2517C454.196 56.0688 455.663 52.479 458.597 49.4823C461.593 46.4856 465.213 44.9873 469.458 44.9873H469.738C473.921 44.9873 477.51 46.4856 480.506 49.4823C483.502 52.479 485 56.0688 485 60.2517V122.152C485 126.398 483.502 129.988 480.506 132.922C477.51 135.919 473.921 137.417 469.738 137.417H469.458ZM485 20.7327C485 25.1029 483.44 28.8488 480.319 31.9703C477.26 35.0295 473.546 36.559 469.177 36.559C464.807 36.559 461.062 35.0295 457.941 31.9703C454.883 28.8488 453.353 25.1029 453.353 20.7327C453.353 16.3625 454.883 12.6478 457.941 9.5887C461.062 6.52957 464.807 5 469.177 5C473.546 5 477.26 6.52957 480.319 9.5887C483.44 12.6478 485 16.3625 485 20.7327Z" fill="url(#paint7_linear)"/>
<defs>
<linearGradient id="paint0_linear" x1="580.689" y1="21.8097" x2="637.574" y2="80.3654" gradientUnits="userSpaceOnUse">
<stop offset="0.015625" stop-color="#437DCA"/>
<stop offset="1" stop-color="#00ABE9"/>
</linearGradient>
<linearGradient id="paint1_linear" x1="736.416" y1="21.8097" x2="679.531" y2="80.3654" gradientUnits="userSpaceOnUse">
<stop offset="0.015625" stop-color="#437DCA"/>
<stop offset="1" stop-color="#00ABE9"/>
</linearGradient>
<linearGradient id="paint2_linear" x1="242.5" y1="5" x2="321.629" y2="159.808" gradientUnits="userSpaceOnUse">
<stop stop-color="#C954A6"/>
<stop offset="1" stop-color="#437DCA"/>
</linearGradient>
<linearGradient id="paint3_linear" x1="242.5" y1="5" x2="321.629" y2="159.808" gradientUnits="userSpaceOnUse">
<stop stop-color="#C954A6"/>
<stop offset="1" stop-color="#437DCA"/>
</linearGradient>
<linearGradient id="paint4_linear" x1="242.5" y1="5" x2="321.629" y2="159.808" gradientUnits="userSpaceOnUse">
<stop stop-color="#C954A6"/>
<stop offset="1" stop-color="#437DCA"/>
</linearGradient>
<linearGradient id="paint5_linear" x1="242.5" y1="5" x2="321.629" y2="159.808" gradientUnits="userSpaceOnUse">
<stop stop-color="#C954A6"/>
<stop offset="1" stop-color="#437DCA"/>
</linearGradient>
<linearGradient id="paint6_linear" x1="242.5" y1="5" x2="321.629" y2="159.808" gradientUnits="userSpaceOnUse">
<stop stop-color="#C954A6"/>
<stop offset="1" stop-color="#437DCA"/>
</linearGradient>
<linearGradient id="paint7_linear" x1="242.5" y1="5" x2="321.629" y2="159.808" gradientUnits="userSpaceOnUse">
<stop stop-color="#C954A6"/>
<stop offset="1" stop-color="#437DCA"/>
</linearGradient>
</defs>
</svg>
