<svg width="70" height="30" viewBox="0 0 70 30" fill="none" xmlns="http://www.w3.org/2000/svg">
<path d="M54.6414 22.7784C54.0128 21.4837 53.422 20.3523 53.3214 20.2643C53.2209 20.1763 52.7935 20.1134 52.3283 20.1134H51.5364L53.1957 23.3441C54.1008 25.1292 54.943 26.6879 55.0436 26.8011C55.2699 27.0651 56.3007 27.1153 56.6024 26.8765C56.7658 26.7382 60.097 20.3774 60.097 20.1889C60.097 20.1512 59.7074 20.1134 59.2422 20.1134H58.3874L57.1555 22.6276C56.4767 24.0104 55.8859 25.1417 55.8356 25.1292C55.7979 25.1292 55.2573 24.0732 54.6414 22.7784Z" fill="#73B13F"/>
<path d="M50.7947 23.7715C50.7947 20.9682 50.7695 20.478 50.5935 20.3146C50.4678 20.1763 50.1661 20.1134 49.6507 20.1134H48.9091V23.5704V27.0273H49.8519H50.7947V23.7715Z" fill="#73B13F"/>
<path d="M45.0121 20.2266V19.1078V17.9764H44.1321H43.2396L43.2773 21.8608C43.3151 25.5943 43.3276 25.7703 43.579 26.1097C44.0944 26.7885 44.547 26.9519 46.1938 27.0022C47.8908 27.0651 48.0291 27.0022 48.0291 26.1348V25.6697L46.8349 25.6194C45.1252 25.5566 45.0875 25.5189 45.0372 23.319L44.987 21.6219H46.5206H48.0416L48.0039 20.9557L47.9662 20.302L46.4954 20.2643L45.0121 20.2266Z" fill="#73B13F"/>
<path d="M42.3724 21.0311C42.3724 20.7294 42.3095 20.3649 42.2466 20.2266C42.1335 20.0129 41.9701 19.9877 40.9519 19.9877C39.0285 20.0003 37.9977 20.5157 37.4195 21.7476C37.1932 22.2505 37.1555 22.6024 37.1178 24.664L37.0675 27.0273H37.8846C38.3874 27.0273 38.752 26.9645 38.8274 26.8639C38.9028 26.7759 38.9783 25.8206 39.0034 24.5509L39.0411 22.3762L39.3931 22.0368C39.7199 21.7099 39.8079 21.6848 41.0524 21.6471L42.3724 21.5968V21.0311Z" fill="#73B13F"/>
<path d="M17.1051 20.8799C17.1051 20.4399 17.0548 20.2388 16.9039 20.1885C16.6148 20.0754 11.8379 20.1256 11.3351 20.2388C9.6129 20.641 9.29863 22.7906 10.8323 23.6957C11.1968 23.9094 11.5362 23.9471 13.271 23.9849C15.4206 24.0351 15.6469 24.098 15.7851 24.6763C15.848 24.9277 15.7977 25.0785 15.5463 25.3174L15.232 25.6442H12.5796H9.93974V26.3482V27.0396L13.0573 27.0018C15.76 26.9641 16.2125 26.939 16.5771 26.7379C17.7965 26.0716 17.7965 24.0729 16.5771 23.4192C16.2503 23.2432 15.7223 23.1929 13.9875 23.1301C11.5865 23.0546 11.5488 23.0421 11.5991 22.2501C11.6619 21.5587 11.9133 21.4959 14.6915 21.4959H17.1051V20.8799Z" fill="#73B13F"/>
<path d="M49.5375 3.39449V1.69744V0.000391006H47.7776H46.0051L46.0428 6.18519C46.0931 12.8854 46.0931 12.8477 46.8097 13.9162C47.6142 15.1104 48.7707 15.4624 51.9636 15.4624C54.4527 15.4624 54.4401 15.475 54.4401 13.8408V12.722L52.567 12.6843C50.9077 12.634 50.6437 12.5963 50.3295 12.37C49.6004 11.842 49.5375 11.5152 49.5626 8.73706L49.6004 6.22291L52.0894 6.18519L54.5658 6.16005V5.02869C54.5658 3.35678 54.6287 3.39449 51.8002 3.39449H49.5375Z" fill="white"/>
<path d="M44.258 5.21701C44.258 4.0605 44.2202 3.85937 44.0065 3.64567C43.7803 3.4194 43.6043 3.39425 41.9701 3.40683C39.6822 3.43197 39.0034 3.5451 37.8846 4.08565C36.5018 4.76447 35.647 5.93354 35.3453 7.59288C35.2699 8.02029 35.207 9.86819 35.207 11.9172V15.4873L36.7909 15.437C38.1863 15.3993 38.3874 15.3742 38.5508 15.1605C38.6891 14.9593 38.7268 14.2931 38.7268 11.8544C38.7268 8.39741 38.8148 7.8443 39.4182 7.22833C39.9713 6.68779 40.6502 6.53694 42.6112 6.53694H44.258V5.21701Z" fill="white"/>
<path d="M13.8053 2.19337C13.7927 0.659742 13.7424 0.458613 13.2145 0.182056C12.7996 -0.0442162 4.12581 -0.00650501 3.40928 0.219769C1.56138 0.785452 0.191172 2.45736 0.0151815 4.35554C-0.123097 5.91431 0.694001 7.62393 2.0265 8.5416C3.18301 9.33355 3.23329 9.33355 10.4363 9.33355H10.4363H16.9605L16.6086 8.69245C16.1937 7.91306 15.4898 7.27195 14.5595 6.83198L13.8681 6.50514L9.34267 6.44228C4.28923 6.36686 4.28923 6.36686 3.92468 5.49948C3.74869 5.07207 3.77383 4.88351 4.03782 4.3304C4.33951 3.70186 4.54065 3.67672 9.34267 3.67672H13.8053V2.19337Z" fill="white"/>
<path d="M16.6965 13.2053C16.8977 12.7779 17.0737 12.3631 17.0737 12.2625C17.0737 12.1243 16.0052 12.0991 11.0397 12.0991H5.00576V12.4134C5.00576 13.1425 4.46522 14.1607 3.67327 14.9527L2.89388 15.7446H7.88446C11.9071 15.7446 13.0133 15.7069 13.5916 15.5561C15.1001 15.1664 16.0806 14.4121 16.6965 13.2053Z" fill="white"/>
<path d="M4.12589 13.9851C4.55329 13.4445 4.88013 12.7406 4.88013 12.3509C4.88013 12.112 4.80471 12.0995 3.05737 12.0995C1.27233 12.0995 1.20947 12.112 0.920348 12.4137C0.61865 12.7029 0.606079 12.7909 0.606079 14.2239V15.7324L1.02091 15.6696C2.3157 15.4433 3.45964 14.8273 4.12589 13.9851Z" fill="#73B13F"/>
<path fill-rule="evenodd" clip-rule="evenodd" d="M28.9845 3.70868C31.1592 4.27437 32.7306 5.74514 33.2585 7.71875C33.5351 8.74955 33.4722 10.7106 33.1328 11.5654C32.4163 13.3504 30.9832 14.5698 28.9845 15.0852C27.8657 15.3743 25.1127 15.4372 23.8179 15.1983C21.2535 14.7332 19.3302 12.7848 18.9908 10.2957C18.5759 7.2662 20.2981 4.58863 23.1894 3.75897C24.2328 3.45727 27.8908 3.43213 28.9845 3.70868ZM22.7368 10.7103C22.0202 9.21441 22.6739 7.39165 24.1447 6.80083C24.3207 6.73798 25.2258 6.67512 26.156 6.67512C28.0919 6.66255 28.5822 6.8134 29.261 7.58021C29.7889 8.18361 29.9775 8.79958 29.8895 9.71724C29.8015 10.6475 29.349 11.364 28.5444 11.8166C28.0542 12.0805 27.7902 12.1308 26.5583 12.1685C24.3332 12.244 23.2899 11.8543 22.7368 10.7103Z" fill="white"/>
<path fill-rule="evenodd" clip-rule="evenodd" d="M67.0234 3.64559C68.4313 3.90958 69.3867 4.81467 69.7387 6.21002C70.1409 7.88193 69.6381 9.28985 68.4062 9.85554C67.8656 10.1069 67.6017 10.1195 63.843 10.1572C61.6431 10.1824 59.8455 10.2201 59.8455 10.2327C59.8455 10.2578 59.9335 10.5218 60.0341 10.8235C60.2729 11.4772 60.7255 11.9926 61.4168 12.3571C61.8945 12.6211 62.1082 12.6337 65.6029 12.6714L69.2987 12.7217L69.2484 13.853C69.2257 14.4801 69.2424 14.869 69.0611 15.107C68.7407 15.5275 67.8023 15.4771 64.9367 15.4369C61.6305 15.3867 61.2157 15.3489 60.4615 15.1101C58.3496 14.4187 56.9417 12.9102 56.4514 10.8361L56.3006 10.1824H55.4332H54.5658V9.64183C54.5658 8.87502 54.7544 8.68646 55.6217 8.57332L56.3634 8.48532L56.5771 7.71851C57.1679 5.55634 59.1667 3.93472 61.6683 3.60788C62.4979 3.49474 66.3823 3.53245 67.0234 3.64559ZM60.1598 7.74368C60.3987 7.19057 61.0649 6.53689 61.6306 6.33576C61.8694 6.23519 62.7745 6.17234 63.843 6.17234C66.2189 6.15977 66.508 6.29805 66.508 7.42941C66.508 7.79396 66.42 8.02024 66.1938 8.23394L65.8921 8.54821H62.9254C60.77 8.54821 60.1021 8.56474 59.999 8.33153C59.9463 8.21248 60.0409 8.02834 60.1598 7.74368Z" fill="white"/>
<path fill-rule="evenodd" clip-rule="evenodd" d="M8.10449 20.4779C8.3559 20.6413 8.64503 20.9304 8.74559 21.119C8.97187 21.5589 8.99701 22.6149 8.78331 23.0674C8.48161 23.7337 8.09192 23.8217 5.37664 23.8594C2.88763 23.9097 2.88763 23.9097 2.97563 24.1737C3.13905 24.7268 3.47846 25.1793 3.90586 25.4056C4.28298 25.6067 4.63496 25.6444 6.45772 25.6444H8.5696L8.53189 26.2981L8.49418 26.9644H6.10574C3.83044 26.9644 3.69216 26.9518 3.10133 26.6627C2.18367 26.2101 1.55513 25.4936 1.29115 24.6136L1.07744 23.8845H0.536903C0.0466439 23.8845 -0.00363861 23.8594 0.0340736 23.5954C0.0592151 23.3691 0.159781 23.3063 0.612327 23.2811C1.00202 23.256 1.1403 23.1931 1.1403 23.0297C1.1403 22.6652 1.74369 21.5087 2.10824 21.1692C3.00077 20.3396 3.89329 20.1133 6.05546 20.1636C7.45081 20.1887 7.70222 20.2264 8.10449 20.4779ZM3.0511 22.7279C3.22709 22.2 3.61678 21.76 4.09447 21.5463C4.30817 21.4457 4.93671 21.3829 5.57782 21.3703C6.58348 21.3703 6.70919 21.3954 6.98574 21.6846C7.36286 22.0491 7.38801 22.4891 7.06117 22.8914C6.83489 23.1805 6.73433 23.193 5.03728 23.2308C4.05676 23.2559 3.17681 23.2433 3.08881 23.2056C2.93796 23.1553 2.93796 23.0548 3.0511 22.7279Z" fill="#73B13F"/>
<path fill-rule="evenodd" clip-rule="evenodd" d="M24.8864 20.4904C25.5903 20.8046 26.3194 21.5337 26.6337 22.2377C26.8851 22.8034 26.8977 24.3999 26.6714 25.0661C26.2189 26.3735 25.0247 27.0271 23.1013 27.0271C22.0831 27.0271 21.706 26.9769 20.5369 26.7129C20.2478 26.65 20.2478 26.65 20.2478 28.1585V29.667H19.4433C18.9027 29.667 18.601 29.6041 18.5004 29.491C18.3873 29.3527 18.3496 28.3973 18.3873 25.8706C18.425 22.9039 18.4627 22.376 18.6513 21.936C18.9153 21.3577 19.4055 20.7921 19.8958 20.5406C20.8512 20.0378 23.7676 20.0127 24.8864 20.4904ZM20.2729 23.985C20.2352 22.7027 20.4237 22.1999 21.0397 21.9359C21.2785 21.8228 21.8819 21.7599 22.5105 21.7599C24.3332 21.7474 25.0246 22.2753 25.0246 23.633C25.0246 24.9906 24.4212 25.4683 22.7619 25.4306C22.1711 25.418 21.3791 25.33 21.002 25.242L20.3106 25.0786L20.2729 23.985Z" fill="#73B13F"/>
<path fill-rule="evenodd" clip-rule="evenodd" d="M34.2264 20.5155C34.5909 20.6915 35.0812 21.0057 35.3075 21.232C36.0114 21.9485 36.1497 22.3131 36.1497 23.5702C36.1497 24.5884 36.112 24.7644 35.7977 25.3049C35.056 26.562 33.6481 27.1151 31.4608 26.9894C30.1032 26.914 29.3866 26.6248 28.6575 25.8706C27.4759 24.6512 27.5387 22.3508 28.7581 21.1817C29.6129 20.3772 30.5809 20.1006 32.3408 20.1635C33.2961 20.2012 33.6984 20.2766 34.2264 20.5155ZM30.4174 25.1034C29.2358 24.3115 29.3112 22.6019 30.5683 21.9733C31.134 21.6716 32.7933 21.6591 33.3967 21.9482C34.6663 22.5516 34.7795 24.3115 33.5852 25.1034C33.2207 25.3549 32.9944 25.3926 32.0013 25.3926C31.0082 25.3926 30.782 25.3549 30.4174 25.1034Z" fill="#73B13F"/>
<path fill-rule="evenodd" clip-rule="evenodd" d="M68.6702 22.5267C68.3936 21.169 67.6645 20.4776 66.2566 20.2514C65.4395 20.1131 61.9323 20.0754 61.6432 20.2011C61.5426 20.2388 61.4797 20.5153 61.4797 20.9428V21.6216H63.6796C66.1812 21.6216 66.5332 21.7096 66.8349 22.4387C66.963 22.7452 67.0528 22.9368 66.9946 23.0566C66.893 23.2659 66.3393 23.2558 64.7481 23.2558C62.1837 23.2558 61.7689 23.3563 61.354 24.0352C61.0523 24.538 61.0146 25.6191 61.2912 26.147C61.6809 26.8887 61.9951 26.9641 65.2384 27.0018C66.86 27.027 68.3182 27.0144 68.4816 26.9641C68.7582 26.9013 68.7708 26.8636 68.7708 25.4556V24.01H69.3365C69.8016 24.01 69.9021 23.9723 69.9021 23.7837C69.9021 23.4443 69.6507 23.2558 69.2107 23.2558C68.8336 23.2558 68.8211 23.2306 68.6702 22.5267ZM62.9882 25.5188C62.5608 25.0914 62.7116 24.2868 63.2396 24.0983C63.3402 24.0606 64.2327 24.0229 65.2258 24.0229L67.0108 24.0103V24.8902V25.7702H65.1252C63.403 25.7702 63.2145 25.7451 62.9882 25.5188Z" fill="#73B13F"/>
</svg>
