<svg width="945" height="305" viewBox="0 0 945 305" fill="none" xmlns="http://www.w3.org/2000/svg">
<path fill-rule="evenodd" clip-rule="evenodd" d="M167.123 193.685L167.117 193.68C165.913 192.695 164.826 190.935 164.091 188.027C163.492 185.006 163.269 181.994 163.419 178.985L163.422 178.933L163.908 119.839L164.88 31.861V31.8493C164.88 27.0452 163.286 22.9601 159.987 19.8401C156.687 16.5556 152.372 15 147.302 15C142.746 15 138.787 16.6426 135.563 19.8668C132.317 23.1126 130.696 27.1627 130.696 31.8493C130.696 48.6083 130.472 58.8897 130.026 96.216C119.794 89.3725 108.114 85.9581 95.0617 85.9581C82.0124 85.9581 70.0753 89.058 59.3058 95.2829C48.7099 101.339 40.2952 109.759 34.0847 120.502L34.0773 120.515L34.07 120.527C28.011 131.299 25 143.311 25 156.506C25 169.999 27.9187 182.018 33.8289 192.487L33.8365 192.501L33.8441 192.514C39.908 202.957 48.2652 211.062 58.8789 216.79L58.8862 216.794L58.8935 216.797C69.6603 222.517 81.7351 225.352 95.0617 225.352C103.576 225.352 111.479 224.018 118.746 221.319C125.138 219.136 130.865 216.007 135.909 211.929C138.081 215.456 140.723 218.282 143.865 220.329C147.808 222.896 152.388 224.138 157.507 224.138C162.301 224.138 166.598 222.977 170.297 220.573C174.179 218.05 176.3 214.457 176.3 209.961C176.3 206.502 175.482 203.405 173.706 200.812C172.215 198.41 169.982 196.039 167.123 193.685ZM119.526 181.942C113.43 188.038 105.36 191.168 95.0617 191.168C84.0726 191.168 75.5058 188.011 69.0966 181.9C62.7173 175.818 59.4276 167.533 59.4276 156.749C59.4276 149.85 60.9556 143.72 63.9654 138.298C67.1497 132.691 71.4462 128.324 76.8766 125.154C82.4752 121.979 88.6017 120.386 95.3046 120.386C105.006 120.386 112.916 123.764 119.223 130.521C125.538 137.288 128.752 145.882 128.752 156.506C128.752 167.499 125.594 175.874 119.526 181.942ZM132.518 97.9723L132.48 101.107C132.493 100.054 132.506 99.0093 132.518 97.9723Z" fill="url(#paint0_linear_15318_135240)"/>
<path d="M198.354 68.6995L198.395 68.7418L198.437 68.7821C202.478 72.6397 207.396 74.58 213.051 74.58C218.433 74.58 223.117 72.6017 226.977 68.7413C230.992 64.7257 233.059 59.8824 233.059 54.329C233.059 48.6734 231.115 43.8124 227.22 39.9168C223.341 36.0383 218.569 34.078 213.051 34.078C207.36 34.078 202.428 36.1266 198.395 40.1598C194.517 44.0382 192.557 48.8104 192.557 54.329C192.557 59.8449 194.513 64.6754 198.354 68.6995Z" fill="url(#paint1_linear_15318_135240)"/>
<path d="M204.091 222.129L204.121 222.156L204.152 222.181C207.464 224.941 211.179 226.409 215.237 226.409C219.511 226.409 223.492 225.097 227.127 222.553L227.161 222.529L227.194 222.504C231.123 219.557 233.059 215.38 233.059 210.288C233.059 195.743 233.463 168.714 234.273 135.184L234.273 135.181C234.601 120.753 232.499 109.536 227.56 101.939C222.736 94.2668 215.707 90.3318 206.733 90.3318C201.763 90.3318 197.301 91.5803 193.445 94.1478C189.571 96.6704 187.454 100.26 187.454 104.751V104.817L187.458 104.883C187.636 108.279 188.45 111.302 190.014 113.844L190.049 113.902L190.088 113.957C191.727 116.325 194.023 118.6 196.892 120.8C197.868 121.641 198.766 123.121 199.372 125.581C199.984 128.065 200.248 131.353 200.091 135.515L200.09 135.541L198.874 210.267V210.288C198.874 215.025 200.616 219.04 204.091 222.129Z" fill="url(#paint2_linear_15318_135240)"/>
<path fill-rule="evenodd" clip-rule="evenodd" d="M293.744 243.534L293.744 243.529L294.151 215.491C303.961 223.487 315.077 227.539 327.435 227.539C340.783 227.539 352.801 224.532 363.422 218.464C374.189 212.405 382.541 203.971 388.436 193.195C394.491 182.261 397.496 170.012 397.496 156.506C397.496 143.323 394.572 131.321 388.684 120.554C382.8 109.796 374.625 101.361 364.184 95.2952C353.724 89.0563 341.938 85.9581 328.893 85.9581C320.875 85.9581 313.125 87.8374 305.669 91.5635C299.47 94.5918 293.84 98.658 288.779 103.742C286.701 99.8789 284.034 96.8117 280.73 94.6483C276.559 91.7566 271.768 90.3318 266.447 90.3318C261.653 90.3318 257.357 91.4919 253.657 93.8966C249.776 96.4196 247.654 100.012 247.654 104.508C247.654 107.938 248.378 111.013 249.971 113.601L250.006 113.659L250.045 113.714C251.673 116.066 253.957 118.416 256.819 120.775C257.829 121.63 258.779 123.144 259.468 125.647C260.155 128.142 260.531 131.435 260.532 135.59C259.56 197.46 259.074 243.069 259.074 272.407C259.074 276.868 260.487 280.79 263.347 284.032L263.353 284.039C266.463 287.537 270.572 289.256 275.437 289.256C280.712 289.256 285.099 287.505 288.247 283.8C291.329 280.516 293.064 276.739 293.256 272.521L293.258 272.485L293.258 272.448L293.258 272.447L293.258 272.445V272.443L293.258 272.442L293.259 272.421L293.744 243.534ZM358.512 138.02L358.531 138.056L358.552 138.091C361.711 143.508 363.312 149.625 363.312 156.506C363.312 167.436 359.948 176.261 353.327 183.187C346.729 189.93 338.175 193.355 327.435 193.355C317.37 193.355 309.591 190.034 303.813 183.521C297.981 176.787 294.959 167.863 294.959 156.506C294.959 145.502 298.045 136.832 304.025 130.254L304.034 130.244L304.044 130.233C310.013 123.517 317.734 120.143 327.435 120.143C334.316 120.143 340.433 121.743 345.849 124.903C351.279 128.07 355.489 132.428 358.512 138.02Z" fill="url(#paint3_linear_15318_135240)"/>
<path fill-rule="evenodd" clip-rule="evenodd" d="M451.547 243.534L451.547 243.529L451.954 215.491C461.765 223.487 472.88 227.539 485.238 227.539C498.586 227.539 510.604 224.532 521.226 218.464C531.994 212.405 540.346 203.969 546.242 193.192C552.295 182.259 555.3 170.01 555.3 156.506C555.3 143.323 552.375 131.321 546.487 120.554C540.604 109.796 532.429 101.361 521.987 95.2952C511.527 89.0563 499.741 85.9581 486.696 85.9581C478.678 85.9581 470.927 87.8374 463.471 91.564C457.273 94.5923 451.643 98.6583 446.582 103.742C444.504 99.8789 441.837 96.8117 438.533 94.6483C434.363 91.7566 429.572 90.3318 424.25 90.3318C419.456 90.3318 415.16 91.4919 411.46 93.8966C407.579 96.4196 405.457 100.012 405.457 104.508C405.457 107.938 406.181 111.013 407.774 113.601L407.809 113.659L407.848 113.714C409.476 116.066 411.76 118.416 414.623 120.775C415.632 121.63 416.582 123.144 417.271 125.647C417.958 128.142 418.334 131.435 418.335 135.59C417.363 197.46 416.877 243.069 416.877 272.407C416.877 276.868 418.29 280.79 421.151 284.032L421.157 284.039C424.267 287.537 428.375 289.256 433.241 289.256C438.515 289.256 442.902 287.505 446.05 283.8C449.133 280.516 450.867 276.739 451.059 272.521L451.061 272.485L451.061 272.449L451.061 272.447V272.445L451.061 272.443V272.442L451.076 271.595L451.076 271.575L451.076 271.555L451.547 243.534ZM516.315 138.02L516.334 138.056L516.355 138.091C519.515 143.508 521.115 149.625 521.115 156.506C521.115 167.435 517.751 176.26 511.131 183.186C504.533 189.929 495.979 193.355 485.238 193.355C475.174 193.355 467.394 190.034 461.616 183.521C455.785 176.787 452.763 167.863 452.763 156.506C452.763 145.502 455.848 136.832 461.828 130.254L461.838 130.244L461.847 130.233C467.816 123.517 475.538 120.143 485.238 120.143C492.119 120.143 498.236 121.743 503.653 124.903C509.082 128.07 513.292 132.428 516.315 138.02Z" fill="url(#paint4_linear_15318_135240)"/>
<path d="M572.231 68.6991L572.271 68.7414L572.313 68.7817C576.354 72.6393 581.272 74.5796 586.927 74.5796C592.309 74.5796 596.993 72.6013 600.853 68.7409C604.868 64.7253 606.935 59.882 606.935 54.3286C606.935 48.673 604.991 43.812 601.096 39.9164C597.217 36.0379 592.445 34.0776 586.927 34.0776C581.236 34.0776 576.304 36.1262 572.271 40.1593C568.393 44.0378 566.433 48.81 566.433 54.3286C566.433 59.8445 568.389 64.675 572.231 68.6991Z" fill="url(#paint5_linear_15318_135240)"/>
<path d="M577.967 222.129L577.997 222.155L578.028 222.181C581.34 224.941 585.055 226.408 589.113 226.408C593.387 226.408 597.368 225.097 601.003 222.552L601.037 222.529L601.07 222.504C604.999 219.557 606.935 215.379 606.935 210.288C606.935 195.742 607.339 168.714 608.149 135.184L608.149 135.18C608.477 120.752 606.375 109.536 601.436 101.939C596.612 94.2664 589.583 90.3314 580.609 90.3314C575.639 90.3314 571.177 91.5799 567.321 94.1474C563.447 96.67 561.33 100.259 561.33 104.751V104.817L561.333 104.883C561.512 108.279 562.326 111.302 563.89 113.844L563.925 113.901L563.964 113.957C565.603 116.325 567.899 118.6 570.768 120.8C571.744 121.64 572.642 123.121 573.248 125.58C573.86 128.065 574.124 131.353 573.967 135.514L573.966 135.54L572.75 210.267V210.288C572.75 215.024 574.492 219.04 577.967 222.129Z" fill="url(#paint6_linear_15318_135240)"/>
<path d="M748.137 44.6615C755.389 36.4496 765.997 31.2707 777.815 31.2707C789.633 31.2707 800.241 36.4496 807.493 44.6615L807.499 44.6561L908.706 159.73C915.594 166.851 919.832 176.55 919.832 187.239C919.832 209.095 902.112 226.813 880.253 226.813C868.14 226.813 857.298 221.372 850.038 212.801L849.987 212.846L808.046 165.124H807.992C800.732 156.579 789.907 151.157 777.815 151.157C765.723 151.157 754.897 156.579 747.638 165.124H747.584L705.642 212.846L705.592 212.801C698.332 221.372 687.49 226.813 675.377 226.813C653.518 226.813 635.798 209.095 635.798 187.239C635.798 176.55 640.036 166.851 646.924 159.73L748.131 44.6561L748.137 44.6615Z" fill="url(#paint7_linear_15318_135240)"/>
<path d="M777.815 246.6C762.385 246.6 749.877 234.093 749.877 218.665C749.877 203.238 762.385 190.731 777.815 190.731C793.245 190.731 805.753 203.238 805.753 218.665C805.753 234.093 793.245 246.6 777.815 246.6Z" fill="url(#paint8_linear_15318_135240)"/>
<defs>
<linearGradient id="paint0_linear_15318_135240" x1="25" y1="15" x2="330.993" y2="587.641" gradientUnits="userSpaceOnUse">
<stop stop-color="#43CBFF"/>
<stop offset="1" stop-color="#9708CC"/>
</linearGradient>
<linearGradient id="paint1_linear_15318_135240" x1="25" y1="15" x2="330.993" y2="587.641" gradientUnits="userSpaceOnUse">
<stop stop-color="#43CBFF"/>
<stop offset="1" stop-color="#9708CC"/>
</linearGradient>
<linearGradient id="paint2_linear_15318_135240" x1="25" y1="15" x2="330.993" y2="587.641" gradientUnits="userSpaceOnUse">
<stop stop-color="#43CBFF"/>
<stop offset="1" stop-color="#9708CC"/>
</linearGradient>
<linearGradient id="paint3_linear_15318_135240" x1="25" y1="15" x2="330.993" y2="587.641" gradientUnits="userSpaceOnUse">
<stop stop-color="#43CBFF"/>
<stop offset="1" stop-color="#9708CC"/>
</linearGradient>
<linearGradient id="paint4_linear_15318_135240" x1="25" y1="15" x2="330.993" y2="587.641" gradientUnits="userSpaceOnUse">
<stop stop-color="#43CBFF"/>
<stop offset="1" stop-color="#9708CC"/>
</linearGradient>
<linearGradient id="paint5_linear_15318_135240" x1="25" y1="15" x2="330.993" y2="587.641" gradientUnits="userSpaceOnUse">
<stop stop-color="#43CBFF"/>
<stop offset="1" stop-color="#9708CC"/>
</linearGradient>
<linearGradient id="paint6_linear_15318_135240" x1="25" y1="15" x2="330.993" y2="587.641" gradientUnits="userSpaceOnUse">
<stop stop-color="#43CBFF"/>
<stop offset="1" stop-color="#9708CC"/>
</linearGradient>
<linearGradient id="paint7_linear_15318_135240" x1="919.832" y1="31.2707" x2="634.028" y2="363.057" gradientUnits="userSpaceOnUse">
<stop stop-color="#43CBFF"/>
<stop offset="1" stop-color="#9708CC"/>
</linearGradient>
<linearGradient id="paint8_linear_15318_135240" x1="919.832" y1="31.2707" x2="634.028" y2="363.057" gradientUnits="userSpaceOnUse">
<stop stop-color="#43CBFF"/>
<stop offset="1" stop-color="#9708CC"/>
</linearGradient>
</defs>
</svg>
