<svg xmlns="http://www.w3.org/2000/svg" xmlns:xlink="http://www.w3.org/1999/xlink" width="1080" zoomAndPan="magnify" viewBox="0 0 810 299.999988" height="400" preserveAspectRatio="xMidYMid meet" version="1.0"><defs><g/></defs><g fill="#ffffff" fill-opacity="1"><g transform="translate(19.435639, 211.911298)"><g><path d="M 91.84375 -42.71875 L 26.921875 -42.71875 C 28.296875 -23.269531 37.957031 -13.546875 55.90625 -13.546875 C 66.445312 -13.546875 75.984375 -17 84.515625 -23.90625 L 90.34375 -10.546875 C 86.082031 -6.898438 80.8125 -4.007812 74.53125 -1.875 C 68.257812 0.25 61.863281 1.3125 55.34375 1.3125 C 40.65625 1.3125 29.078125 -2.890625 20.609375 -11.296875 C 12.140625 -19.703125 7.90625 -31.304688 7.90625 -46.109375 C 7.90625 -55.523438 9.753906 -63.867188 13.453125 -71.140625 C 17.160156 -78.421875 22.367188 -84.066406 29.078125 -88.078125 C 35.796875 -92.097656 43.421875 -94.109375 51.953125 -94.109375 C 64.367188 -94.109375 74.117188 -90.09375 81.203125 -82.0625 C 88.296875 -74.03125 91.84375 -62.925781 91.84375 -48.75 Z M 52.328125 -80.1875 C 45.046875 -80.1875 39.238281 -77.894531 34.90625 -73.3125 C 30.582031 -68.726562 27.984375 -62.171875 27.109375 -53.640625 L 75.46875 -53.640625 C 75.09375 -62.171875 72.925781 -68.726562 68.96875 -73.3125 C 65.019531 -77.894531 59.472656 -80.1875 52.328125 -80.1875 Z M 52.328125 -80.1875 "/></g></g></g><g fill="#ffffff" fill-opacity="1"><g transform="translate(119.377766, 211.911298)"><g><path d="M 78.296875 -91.65625 L 97.3125 -91.65625 L 57.40625 0 L 40.28125 0 L 0.75 -91.65625 L 20.703125 -91.65625 L 49.3125 -21.453125 Z M 78.296875 -91.65625 "/></g></g></g><g fill="#ffffff" fill-opacity="1"><g transform="translate(217.625961, 211.911298)"><g><path d="M 91.84375 -42.71875 L 26.921875 -42.71875 C 28.296875 -23.269531 37.957031 -13.546875 55.90625 -13.546875 C 66.445312 -13.546875 75.984375 -17 84.515625 -23.90625 L 90.34375 -10.546875 C 86.082031 -6.898438 80.8125 -4.007812 74.53125 -1.875 C 68.257812 0.25 61.863281 1.3125 55.34375 1.3125 C 40.65625 1.3125 29.078125 -2.890625 20.609375 -11.296875 C 12.140625 -19.703125 7.90625 -31.304688 7.90625 -46.109375 C 7.90625 -55.523438 9.753906 -63.867188 13.453125 -71.140625 C 17.160156 -78.421875 22.367188 -84.066406 29.078125 -88.078125 C 35.796875 -92.097656 43.421875 -94.109375 51.953125 -94.109375 C 64.367188 -94.109375 74.117188 -90.09375 81.203125 -82.0625 C 88.296875 -74.03125 91.84375 -62.925781 91.84375 -48.75 Z M 52.328125 -80.1875 C 45.046875 -80.1875 39.238281 -77.894531 34.90625 -73.3125 C 30.582031 -68.726562 27.984375 -62.171875 27.109375 -53.640625 L 75.46875 -53.640625 C 75.09375 -62.171875 72.925781 -68.726562 68.96875 -73.3125 C 65.019531 -77.894531 59.472656 -80.1875 52.328125 -80.1875 Z M 52.328125 -80.1875 "/></g></g></g><g fill="#ffffff" fill-opacity="1"><g transform="translate(317.568077, 211.911298)"><g><path d="M 62.671875 -94.109375 C 84.628906 -94.109375 95.609375 -81.75 95.609375 -57.03125 L 95.609375 0 L 76.609375 0 L 76.609375 -56.09375 C 76.609375 -63.875 75.066406 -69.582031 71.984375 -73.21875 C 68.910156 -76.851562 64.113281 -78.671875 57.59375 -78.671875 C 49.9375 -78.671875 43.785156 -76.285156 39.140625 -71.515625 C 34.503906 -66.753906 32.1875 -60.359375 32.1875 -52.328125 L 32.1875 0 L 13.171875 0 L 13.171875 -91.84375 L 31.8125 -91.84375 L 31.8125 -77.171875 C 34.820312 -82.691406 39.023438 -86.894531 44.421875 -89.78125 C 49.816406 -92.664062 55.898438 -94.109375 62.671875 -94.109375 Z M 62.671875 -94.109375 "/></g></g></g><g fill="#ffffff" fill-opacity="1"><g transform="translate(426.356291, 211.911298)"><g><path d="M 56.65625 -13.359375 C 59.539062 -13.359375 62.363281 -13.546875 65.125 -13.921875 L 64.1875 0.5625 C 61.050781 1.0625 57.785156 1.3125 54.390625 1.3125 C 42.472656 1.3125 33.597656 -1.601562 27.765625 -7.4375 C 21.929688 -13.269531 19.015625 -21.707031 19.015625 -32.75 L 19.015625 -77.171875 L 1.125 -77.171875 L 1.125 -91.84375 L 19.015625 -91.84375 L 19.015625 -119.515625 L 38.015625 -119.515625 L 38.015625 -91.84375 L 63.234375 -91.84375 L 63.234375 -77.171875 L 38.015625 -77.171875 L 38.015625 -33.5 C 38.015625 -20.070312 44.226562 -13.359375 56.65625 -13.359375 Z M 56.65625 -13.359375 "/></g></g></g><g fill="#ffffff" fill-opacity="1"><g transform="translate(493.17257, 211.911298)"><g><path d="M 53.078125 1.3125 C 44.046875 1.3125 36.109375 -0.628906 29.265625 -4.515625 C 22.429688 -8.410156 17.160156 -13.960938 13.453125 -21.171875 C 9.753906 -28.390625 7.90625 -36.765625 7.90625 -46.296875 C 7.90625 -55.960938 9.753906 -64.398438 13.453125 -71.609375 C 17.160156 -78.828125 22.429688 -84.378906 29.265625 -88.265625 C 36.109375 -92.160156 44.046875 -94.109375 53.078125 -94.109375 C 62.109375 -94.109375 70.039062 -92.160156 76.875 -88.265625 C 83.71875 -84.378906 88.988281 -78.828125 92.6875 -71.609375 C 96.394531 -64.398438 98.25 -55.960938 98.25 -46.296875 C 98.25 -36.765625 96.394531 -28.390625 92.6875 -21.171875 C 88.988281 -13.960938 83.71875 -8.410156 76.875 -4.515625 C 70.039062 -0.628906 62.109375 1.3125 53.078125 1.3125 Z M 53.078125 -13.734375 C 61.484375 -13.734375 67.910156 -16.492188 72.359375 -22.015625 C 76.816406 -27.535156 79.046875 -35.628906 79.046875 -46.296875 C 79.046875 -56.835938 76.785156 -64.898438 72.265625 -70.484375 C 67.753906 -76.066406 61.359375 -78.859375 53.078125 -78.859375 C 44.796875 -78.859375 38.394531 -76.066406 33.875 -70.484375 C 29.363281 -64.898438 27.109375 -56.835938 27.109375 -46.296875 C 27.109375 -35.628906 29.332031 -27.535156 33.78125 -22.015625 C 38.238281 -16.492188 44.671875 -13.734375 53.078125 -13.734375 Z M 53.078125 -13.734375 "/></g></g></g><g fill="#ffffff" fill-opacity="1"><g transform="translate(599.702224, 211.911298)"><g><path d="M 32 -14.6875 L 87.703125 -14.6875 L 87.703125 0 L 9.03125 0 L 9.03125 -13.171875 L 62.859375 -77.171875 L 10.546875 -77.171875 L 10.546875 -91.84375 L 85.828125 -91.84375 L 85.828125 -78.484375 Z M 32 -14.6875 "/></g></g></g><g fill="#ffffff" fill-opacity="1"><g transform="translate(695.315406, 211.911298)"><g><path d="M 32 -14.6875 L 87.703125 -14.6875 L 87.703125 0 L 9.03125 0 L 9.03125 -13.171875 L 62.859375 -77.171875 L 10.546875 -77.171875 L 10.546875 -91.84375 L 85.828125 -91.84375 L 85.828125 -78.484375 Z M 32 -14.6875 "/></g></g></g></svg>